<svg width="56" height="56" viewBox="0 0 56 56" fill="none" xmlns="http://www.w3.org/2000/svg">
<path d="M56 42.0001C56 43.6503 55.3444 45.2329 54.1776 46.3998C53.0107 47.5667 51.428 48.2223 49.7778 48.2223H6.22222C4.57199 48.2223 2.98934 47.5667 1.82245 46.3998C0.655554 45.2329 0 43.6503 0 42.0001V14.0001C0 12.3498 0.655554 10.7672 1.82245 9.60028C2.98934 8.43339 4.57199 7.77783 6.22222 7.77783H49.7778C51.428 7.77783 53.0107 8.43339 54.1776 9.60028C55.3444 10.7672 56 12.3498 56 14.0001V42.0001Z" fill="#EEEEEE" style="fill:#EEEEEE;fill:color(display-p3 0.9333 0.9333 0.9333);fill-opacity:1;"/>
<path d="M33.3526 20.3544C31.3249 18.9349 28.8163 18.3789 26.3787 18.8089C23.9411 19.2389 21.7741 20.6196 20.3544 22.6473C19.6841 23.6621 19.4362 24.8985 19.6637 26.0933C19.8911 27.2881 20.5759 28.3469 21.5722 29.0445C22.5686 29.742 23.7978 30.0232 24.9983 29.8281C26.1988 29.633 27.2758 28.9771 28 28C28.3515 27.4979 28.7985 27.0701 29.3155 26.7408C29.8324 26.4116 30.4091 26.1873 31.0126 26.0809C31.6162 25.9746 32.2348 25.9881 32.8332 26.1208C33.4315 26.2535 33.9979 26.5027 34.4999 26.8543C35.0019 27.2058 35.4297 27.6528 35.759 28.1698C36.0883 28.6867 36.3125 29.2634 36.4189 29.867C36.5253 30.4705 36.5117 31.0891 36.379 31.6875C36.2463 32.2858 35.9971 32.8522 35.6455 33.3542C36.3487 32.3501 36.8471 31.2173 37.1124 30.0206C37.3777 28.8238 37.4047 27.5865 37.1918 26.3794C36.9788 25.1722 36.5302 24.0188 35.8715 22.985C35.2128 21.9512 34.3569 21.0574 33.3526 20.3544Z" fill="#C60C30" style="fill:#C60C30;fill:color(display-p3 0.7765 0.0471 0.1882);fill-opacity:1;"/>
<path d="M34.4991 26.8551C33.4854 26.1452 32.2312 25.867 31.0124 26.0817C29.7936 26.2964 28.71 26.9864 28 28C27.2775 28.9822 26.1994 29.6428 24.9962 29.8405C23.7931 30.0382 22.5603 29.7573 21.5615 29.0579C20.5627 28.3585 19.8773 27.296 19.6517 26.0977C19.4261 24.8995 19.6783 23.6605 20.3544 22.6458C19.6308 23.6487 19.1137 24.7856 18.8332 25.9901C18.5528 27.1947 18.5145 28.443 18.7207 29.6625C18.9269 30.8819 19.3733 32.0483 20.0342 33.0937C20.695 34.1391 21.5571 35.0428 22.5702 35.7522C23.5834 36.4615 24.7274 36.9625 25.9358 37.2258C27.1442 37.4892 28.3929 37.5098 29.6093 37.2864C30.8258 37.063 31.9857 36.6001 33.0217 35.9245C34.0576 35.2489 34.949 34.3742 35.644 33.3511C35.9956 32.8495 36.2449 32.2835 36.3777 31.6855C36.5105 31.0874 36.5241 30.4691 36.4178 29.8658C36.3114 29.2625 36.0872 28.6861 35.758 28.1695C35.4288 27.6529 35.001 27.2063 34.4991 26.8551Z" fill="#003478" style="fill:#003478;fill:color(display-p3 0.0000 0.2039 0.4706);fill-opacity:1;"/>
<path d="M37.8529 39.7787L40.852 36.204L42.0435 37.2042L39.0444 40.7789L37.8529 39.7787ZM41.8506 35.014L44.8497 31.4409L46.0413 32.4411L43.0422 36.0142L41.8506 35.014ZM40.236 41.7822L43.2351 38.2091L44.4266 39.2094L41.4275 42.7825L40.236 41.7822ZM44.2369 37.0129L47.2391 33.4398L48.4306 34.4416L45.4284 38.0131L44.2369 37.0129ZM42.6175 43.7827L45.6197 40.2096L46.8097 41.2098L43.8091 44.7829L42.6175 43.7827ZM46.6169 39.0149L49.6144 35.4371L50.8075 36.4374L47.81 40.0151L46.6169 39.0149ZM46.6231 16.9851L47.8146 15.9849L50.8169 19.5611L49.6237 20.5614L46.6231 16.9851ZM42.6222 12.2158L43.8137 11.2156L46.8129 14.7918L45.6197 15.7905L42.6222 12.2158ZM40.2375 14.2194L41.4291 13.2191L48.4291 21.56L47.2375 22.5602L40.2375 14.2194ZM37.8544 16.2167L39.0475 15.2165L42.0451 18.7911L40.8535 19.7898L37.8544 16.2167ZM41.8522 20.9845L43.0437 19.9842L46.046 23.5574L44.856 24.5576L41.8522 20.9845ZM9.95552 32.4396L11.1471 31.4394L18.1455 39.7818L16.9524 40.782L9.95552 32.4396ZM7.57552 34.44L8.76552 33.4414L11.7662 37.016L10.5731 38.0162L7.57552 34.44ZM11.5686 39.2094L12.7602 38.2091L15.7624 41.7822L14.5709 42.7825L11.5686 39.2094ZM5.1893 36.4389L6.38086 35.4387L13.3809 43.7796L12.1877 44.7798L5.1893 36.4389ZM5.18774 19.558L12.1846 11.2171L13.3777 12.2158L6.37774 20.5582L5.18774 19.558ZM7.57086 21.56L14.5709 13.2176L15.7624 14.2178L8.76241 22.5587L7.57086 21.56ZM9.95552 23.5589L16.9555 15.2165L18.1471 16.2167L11.1471 24.5591L9.95552 23.5589Z" fill="#292F33" style="fill:#292F33;fill:color(display-p3 0.1608 0.1843 0.2000);fill-opacity:1;"/>
</svg>
