<svg width="97" height="96" viewBox="0 0 97 96" fill="none" xmlns="http://www.w3.org/2000/svg">
<circle cx="48.5" cy="48" r="48" fill="#F5F5F6"/>
<path d="M56.8359 41.7498V35.4998C56.8359 30.8975 53.1049 27.1665 48.5026 27.1665C43.9002 27.1665 40.1692 30.8975 40.1692 35.4998V41.7498M30.9859 44.5664L29.7359 57.8998C29.3805 61.6908 29.2028 63.5863 29.8318 65.0504C30.3844 66.3366 31.3528 67.4 32.5818 68.0702C33.9807 68.8332 35.8846 68.8332 39.6922 68.8332H57.3129C61.1205 68.8332 63.0244 68.8332 64.4234 68.0702C65.6523 67.4 66.6207 66.3366 67.1733 65.0504C67.8023 63.5863 67.6246 61.6908 67.2692 57.8998L66.0192 44.5664C65.7191 41.3651 65.569 39.7645 64.8491 38.5543C64.215 37.4886 63.2783 36.6355 62.1579 36.1037C60.8859 35.4998 59.2782 35.4998 56.0629 35.4998L40.9422 35.4998C37.7269 35.4998 36.1193 35.4998 34.8472 36.1037C33.7269 36.6355 32.7901 37.4886 32.156 38.5543C31.4361 39.7645 31.286 41.3651 30.9859 44.5664Z" stroke="#898E96" stroke-width="2" stroke-linecap="round" stroke-linejoin="round"/>
</svg>
