<svg width="96" height="96" viewBox="0 0 96 96" fill="none" xmlns="http://www.w3.org/2000/svg">
<circle cx="48" cy="48" r="48" fill="#F5F5F6"/>
<path d="M48.0017 38.0879C39.7693 38.0879 34.0369 42.541 31.4099 45.1289C30.6482 45.8809 29.4177 45.8711 28.656 45.1191C27.8943 44.3574 27.8943 43.1074 28.6658 42.3457C29.5642 41.457 30.7556 40.4121 32.2205 39.3574C36.9568 35.9688 42.4158 34.1816 48.0017 34.1816C51.3513 34.1816 54.6619 34.8262 57.7966 36.0762L54.7498 39.123C52.572 38.4297 50.3162 38.0879 48.0017 38.0879ZM48.0017 41.5742C41.7908 41.5742 36.8982 44.7285 33.8806 47.3945C33.031 48.1367 32.9919 49.4453 33.7927 50.2461C34.5154 50.9688 35.6873 51.0176 36.4587 50.334C36.8298 50.002 37.24 49.6602 37.6795 49.3281C40.9998 46.7793 44.4666 45.4805 47.9919 45.4805C48.1189 45.4805 48.2459 45.4805 48.3728 45.4902L51.8689 41.9941C50.658 41.7207 49.3591 41.5742 48.0017 41.5742ZM48.0017 56.6426C45.8435 56.6426 44.0955 58.3906 44.0955 60.5488C44.0955 62.707 45.8435 64.4551 48.0017 64.4551C50.1599 64.4551 51.908 62.707 51.908 60.5488C51.908 58.3906 50.1599 56.6426 48.0017 56.6426ZM39.2029 52.7852C38.5388 53.3906 38.4021 54.3379 38.7732 55.0996L44.1443 49.7285C42.0447 50.4707 40.365 51.7207 39.2029 52.7852ZM67.3377 42.3457C66.4392 41.457 65.2478 40.4121 63.783 39.3574C63.3142 39.0254 62.8455 38.7129 62.367 38.4102L59.5252 41.252C60.1599 41.623 60.7849 42.0234 61.4002 42.4629C62.7283 43.4004 63.8025 44.3477 64.5935 45.1289C65.365 45.8809 66.5857 45.8809 67.3474 45.1191C68.1091 44.3477 68.1091 43.0977 67.3377 42.3457ZM62.1228 47.3945C60.7556 46.1934 59.0173 44.8945 56.947 43.8203L54.0173 46.75C55.4724 47.375 56.908 48.2344 58.324 49.3184C58.7634 49.6602 59.1736 50.002 59.5447 50.3242C60.3162 51.0078 61.488 50.959 62.2107 50.2363C63.0115 49.4453 62.9724 48.1465 62.1228 47.3945ZM51.2537 49.5234L47.8259 52.9512H48.0017C50.6873 52.9512 52.8748 54.4844 54.1638 55.666C54.9353 56.3691 56.1267 56.3398 56.8591 55.6074C57.6404 54.8262 57.6209 53.5371 56.8005 52.7852C55.531 51.6133 53.6462 50.2363 51.2537 49.5234ZM35.658 63.7324L65.3552 34.0352C65.9314 33.459 65.9314 32.5313 65.3552 31.9648C64.7791 31.3887 63.8513 31.3887 63.2849 31.9648L33.5877 61.6523C33.0115 62.2285 33.0115 63.1562 33.5877 63.7227C34.1541 64.3086 35.0818 64.3086 35.658 63.7324Z" fill="#898E96"/>
</svg>
