<svg width="35" height="45" viewBox="0 0 35 45" fill="none" xmlns="http://www.w3.org/2000/svg">
<path d="M34.5 4.5307C34.5 2.02798 32.4688 0 29.9621 0C28.214 0 26.6995 0.985175 25.9409 2.42863C23.426 0.982431 20.4905 0.15368 17.3598 0.15368C8.05036 0.15368 0.5 7.4725 0.5 16.501C0.5 25.5295 8.05036 32.8483 17.3598 32.8483C26.672 32.8483 34.2251 25.5295 34.2251 16.501C34.2251 13.6086 33.45 10.8918 32.0895 8.53452C33.5243 7.77711 34.5 6.26779 34.5 4.5307ZM17.5467 26.5997C12.165 26.5997 7.79749 22.0772 7.79749 16.501C7.79749 10.9247 12.165 6.39677 17.5467 6.39677C22.934 6.39677 27.296 10.922 27.296 16.501C27.296 22.08 22.934 26.5997 17.5467 26.5997Z" fill="url(#paint0_linear_767_10207)" style=""/>
<path d="M19.0695 38.6249C18.5775 38.7154 18.0552 38.773 17.5 38.7868C17.1152 38.7785 16.7414 38.7483 16.3868 38.6962C10.8732 37.9525 8.97664 32.8455 8.97664 32.8455L2.446 36.5804C4.63387 40.6665 8.13832 42.7714 11.2195 43.8526C14.6195 45.0518 17.5 44.9997 17.5 44.9997C17.5 44.9997 20.6004 45.0546 24.1653 43.7154C27.1475 42.5957 30.4596 40.5019 32.554 36.5804L26.0261 32.8455C26.0261 32.8483 24.2368 37.6699 19.0695 38.6249Z" fill="url(#paint1_linear_767_10207)" style=""/>
<defs>
<linearGradient id="paint0_linear_767_10207" x1="33.7419" y1="46.5566" x2="7.37889" y2="-10.0752" gradientUnits="userSpaceOnUse">
<stop stop-color="#28D9E4" style="stop-color:#28D9E4;stop-color:color(display-p3 0.1569 0.8510 0.8941);stop-opacity:1;"/>
<stop offset="0.2709" stop-color="#0299F5" style="stop-color:#0299F5;stop-color:color(display-p3 0.0078 0.6000 0.9608);stop-opacity:1;"/>
<stop offset="0.5503" stop-color="#D452EB" style="stop-color:#D452EB;stop-color:color(display-p3 0.8314 0.3216 0.9216);stop-opacity:1;"/>
<stop offset="0.8352" stop-color="#F52674" style="stop-color:#F52674;stop-color:color(display-p3 0.9608 0.1490 0.4549);stop-opacity:1;"/>
<stop offset="1" stop-color="#F51D52" style="stop-color:#F51D52;stop-color:color(display-p3 0.9608 0.1137 0.3216);stop-opacity:1;"/>
</linearGradient>
<linearGradient id="paint1_linear_767_10207" x1="24.2264" y1="50.9862" x2="-2.13662" y2="-5.64552" gradientUnits="userSpaceOnUse">
<stop stop-color="#28D9E4" style="stop-color:#28D9E4;stop-color:color(display-p3 0.1569 0.8510 0.8941);stop-opacity:1;"/>
<stop offset="0.2709" stop-color="#0299F5" style="stop-color:#0299F5;stop-color:color(display-p3 0.0078 0.6000 0.9608);stop-opacity:1;"/>
<stop offset="0.5503" stop-color="#D452EB" style="stop-color:#D452EB;stop-color:color(display-p3 0.8314 0.3216 0.9216);stop-opacity:1;"/>
<stop offset="0.8352" stop-color="#F52674" style="stop-color:#F52674;stop-color:color(display-p3 0.9608 0.1490 0.4549);stop-opacity:1;"/>
<stop offset="1" stop-color="#F51D52" style="stop-color:#F51D52;stop-color:color(display-p3 0.9608 0.1137 0.3216);stop-opacity:1;"/>
</linearGradient>
</defs>
</svg>
